<?xml version="1.0" encoding="UTF-8"?>
<!-- Do not edit this file with editors other than draw.io -->
<!DOCTYPE svg PUBLIC "-//W3C//DTD SVG 1.1//EN" "http://www.w3.org/Graphics/SVG/1.1/DTD/svg11.dtd">
<svg xmlns="http://www.w3.org/2000/svg" style="background: transparent; background-color: transparent; color-scheme: light dark;" xmlns:xlink="http://www.w3.org/1999/xlink" version="1.1" width="501px" height="321px" viewBox="0 0 501 321" content="&lt;mxfile host=&quot;app.diagrams.net&quot; agent=&quot;Mozilla/5.0 (X11; Linux x86_64) AppleWebKit/537.36 (KHTML, like Gecko) Chrome/144.0.0.0 Safari/537.36&quot; version=&quot;29.6.0&quot;&gt;&#10;  &lt;diagram name=&quot;Página-1&quot; id=&quot;r-4WkWWnd5efkJLg1_am&quot;&gt;&#10;    &lt;mxGraphModel grid=&quot;1&quot; page=&quot;1&quot; gridSize=&quot;10&quot; guides=&quot;1&quot; tooltips=&quot;1&quot; connect=&quot;1&quot; arrows=&quot;1&quot; fold=&quot;1&quot; pageScale=&quot;1&quot; pageWidth=&quot;827&quot; pageHeight=&quot;1169&quot; math=&quot;0&quot; shadow=&quot;0&quot;&gt;&#10;      &lt;root&gt;&#10;        &lt;mxCell id=&quot;0&quot; /&gt;&#10;        &lt;mxCell id=&quot;1&quot; parent=&quot;0&quot; /&gt;&#10;        &lt;mxCell id=&quot;2TCWhb-XTmcDqcRTRNEL-1&quot; parent=&quot;1&quot; style=&quot;rounded=1;whiteSpace=wrap;html=1;&quot; value=&quot;&quot; vertex=&quot;1&quot;&gt;&#10;          &lt;mxGeometry height=&quot;320&quot; width=&quot;350&quot; x=&quot;230&quot; y=&quot;50&quot; as=&quot;geometry&quot; /&gt;&#10;        &lt;/mxCell&gt;&#10;        &lt;mxCell id=&quot;2TCWhb-XTmcDqcRTRNEL-2&quot; parent=&quot;1&quot; style=&quot;rounded=1;whiteSpace=wrap;html=1;&quot; value=&quot;&quot; vertex=&quot;1&quot;&gt;&#10;          &lt;mxGeometry height=&quot;280&quot; width=&quot;140&quot; x=&quot;250&quot; y=&quot;70&quot; as=&quot;geometry&quot; /&gt;&#10;        &lt;/mxCell&gt;&#10;        &lt;mxCell id=&quot;2TCWhb-XTmcDqcRTRNEL-3&quot; parent=&quot;1&quot; style=&quot;sketch=0;verticalLabelPosition=bottom;sketch=0;aspect=fixed;html=1;verticalAlign=top;strokeColor=none;fillColor=#000000;align=center;outlineConnect=0;pointerEvents=1;shape=mxgraph.citrix2.site_database;&quot; value=&quot;&quot; vertex=&quot;1&quot;&gt;&#10;          &lt;mxGeometry height=&quot;90&quot; width=&quot;81.71&quot; x=&quot;480&quot; y=&quot;165&quot; as=&quot;geometry&quot; /&gt;&#10;        &lt;/mxCell&gt;&#10;        &lt;mxCell id=&quot;2TCWhb-XTmcDqcRTRNEL-4&quot; parent=&quot;1&quot; style=&quot;rounded=1;whiteSpace=wrap;html=1;&quot; value=&quot;Clientes&quot; vertex=&quot;1&quot;&gt;&#10;          &lt;mxGeometry height=&quot;40&quot; width=&quot;120&quot; x=&quot;260&quot; y=&quot;90&quot; as=&quot;geometry&quot; /&gt;&#10;        &lt;/mxCell&gt;&#10;        &lt;mxCell id=&quot;2TCWhb-XTmcDqcRTRNEL-5&quot; parent=&quot;1&quot; style=&quot;rounded=1;whiteSpace=wrap;html=1;&quot; value=&quot;Catálogo de Eventos&quot; vertex=&quot;1&quot;&gt;&#10;          &lt;mxGeometry height=&quot;40&quot; width=&quot;120&quot; x=&quot;260&quot; y=&quot;140&quot; as=&quot;geometry&quot; /&gt;&#10;        &lt;/mxCell&gt;&#10;        &lt;mxCell id=&quot;2TCWhb-XTmcDqcRTRNEL-6&quot; parent=&quot;1&quot; style=&quot;rounded=1;whiteSpace=wrap;html=1;&quot; value=&quot;Pagamentos&quot; vertex=&quot;1&quot;&gt;&#10;          &lt;mxGeometry height=&quot;40&quot; width=&quot;120&quot; x=&quot;260&quot; y=&quot;240&quot; as=&quot;geometry&quot; /&gt;&#10;        &lt;/mxCell&gt;&#10;        &lt;mxCell id=&quot;2TCWhb-XTmcDqcRTRNEL-7&quot; parent=&quot;1&quot; style=&quot;rounded=1;whiteSpace=wrap;html=1;&quot; value=&quot;Relatórios&quot; vertex=&quot;1&quot;&gt;&#10;          &lt;mxGeometry height=&quot;40&quot; width=&quot;120&quot; x=&quot;260&quot; y=&quot;290&quot; as=&quot;geometry&quot; /&gt;&#10;        &lt;/mxCell&gt;&#10;        &lt;mxCell id=&quot;2TCWhb-XTmcDqcRTRNEL-9&quot; parent=&quot;1&quot; style=&quot;rounded=1;whiteSpace=wrap;html=1;&quot; value=&quot;Venda/Reserva&quot; vertex=&quot;1&quot;&gt;&#10;          &lt;mxGeometry height=&quot;40&quot; width=&quot;120&quot; x=&quot;260&quot; y=&quot;190&quot; as=&quot;geometry&quot; /&gt;&#10;        &lt;/mxCell&gt;&#10;        &lt;mxCell id=&quot;2TCWhb-XTmcDqcRTRNEL-10&quot; parent=&quot;1&quot; style=&quot;sketch=0;verticalLabelPosition=bottom;sketch=0;aspect=fixed;html=1;verticalAlign=top;strokeColor=none;fillColor=#000000;align=center;outlineConnect=0;pointerEvents=1;shape=mxgraph.citrix2.internet;&quot; value=&quot;&quot; vertex=&quot;1&quot;&gt;&#10;          &lt;mxGeometry height=&quot;50&quot; width=&quot;50&quot; x=&quot;80&quot; y=&quot;185&quot; as=&quot;geometry&quot; /&gt;&#10;        &lt;/mxCell&gt;&#10;        &lt;mxCell id=&quot;Zd8xZPbg5f2I5Xs-4WNl-1&quot; edge=&quot;1&quot; parent=&quot;1&quot; style=&quot;endArrow=classic;html=1;rounded=0;&quot; value=&quot;&quot;&gt;&#10;          &lt;mxGeometry height=&quot;50&quot; relative=&quot;1&quot; width=&quot;50&quot; as=&quot;geometry&quot;&gt;&#10;            &lt;mxPoint x=&quot;140&quot; y=&quot;199.66&quot; as=&quot;sourcePoint&quot; /&gt;&#10;            &lt;mxPoint x=&quot;210&quot; y=&quot;199.66&quot; as=&quot;targetPoint&quot; /&gt;&#10;          &lt;/mxGeometry&gt;&#10;        &lt;/mxCell&gt;&#10;        &lt;mxCell id=&quot;Zd8xZPbg5f2I5Xs-4WNl-2&quot; edge=&quot;1&quot; parent=&quot;1&quot; style=&quot;endArrow=classic;html=1;rounded=0;&quot; value=&quot;&quot;&gt;&#10;          &lt;mxGeometry height=&quot;50&quot; relative=&quot;1&quot; width=&quot;50&quot; as=&quot;geometry&quot;&gt;&#10;            &lt;Array as=&quot;points&quot;&gt;&#10;              &lt;mxPoint x=&quot;180&quot; y=&quot;219.66&quot; /&gt;&#10;            &lt;/Array&gt;&#10;            &lt;mxPoint x=&quot;210&quot; y=&quot;219.66&quot; as=&quot;sourcePoint&quot; /&gt;&#10;            &lt;mxPoint x=&quot;140&quot; y=&quot;219.66&quot; as=&quot;targetPoint&quot; /&gt;&#10;          &lt;/mxGeometry&gt;&#10;        &lt;/mxCell&gt;&#10;        &lt;mxCell id=&quot;Zd8xZPbg5f2I5Xs-4WNl-3&quot; edge=&quot;1&quot; parent=&quot;1&quot; style=&quot;endArrow=classic;html=1;rounded=0;&quot; value=&quot;&quot;&gt;&#10;          &lt;mxGeometry height=&quot;50&quot; relative=&quot;1&quot; width=&quot;50&quot; as=&quot;geometry&quot;&gt;&#10;            &lt;mxPoint x=&quot;400&quot; y=&quot;199.66&quot; as=&quot;sourcePoint&quot; /&gt;&#10;            &lt;mxPoint x=&quot;470&quot; y=&quot;199.66&quot; as=&quot;targetPoint&quot; /&gt;&#10;          &lt;/mxGeometry&gt;&#10;        &lt;/mxCell&gt;&#10;        &lt;mxCell id=&quot;Zd8xZPbg5f2I5Xs-4WNl-4&quot; edge=&quot;1&quot; parent=&quot;1&quot; style=&quot;endArrow=classic;html=1;rounded=0;&quot; value=&quot;&quot;&gt;&#10;          &lt;mxGeometry height=&quot;50&quot; relative=&quot;1&quot; width=&quot;50&quot; as=&quot;geometry&quot;&gt;&#10;            &lt;Array as=&quot;points&quot;&gt;&#10;              &lt;mxPoint x=&quot;440&quot; y=&quot;219.66&quot; /&gt;&#10;            &lt;/Array&gt;&#10;            &lt;mxPoint x=&quot;470&quot; y=&quot;219.66&quot; as=&quot;sourcePoint&quot; /&gt;&#10;            &lt;mxPoint x=&quot;400&quot; y=&quot;219.66&quot; as=&quot;targetPoint&quot; /&gt;&#10;          &lt;/mxGeometry&gt;&#10;        &lt;/mxCell&gt;&#10;      &lt;/root&gt;&#10;    &lt;/mxGraphModel&gt;&#10;  &lt;/diagram&gt;&#10;&lt;/mxfile&gt;&#10;" resource="https://app.diagrams.net/?src=about#G1gyFElCk6EoYkNxONf74eqOL8oQezYTP7#%7B%22pageId%22%3A%22r-4WkWWnd5efkJLg1_am%22%7D"><defs/><g><g data-cell-id="0"><g data-cell-id="1"><g data-cell-id="2TCWhb-XTmcDqcRTRNEL-1"><g transform="translate(0.5,0.5)"><rect x="150" y="0" width="350" height="320" rx="48" ry="48" fill="#ffffff" stroke="#000000" pointer-events="all" style="fill: light-dark(#ffffff, var(--ge-dark-color, #121212)); stroke: light-dark(rgb(0, 0, 0), rgb(255, 255, 255));"/></g></g><g data-cell-id="2TCWhb-XTmcDqcRTRNEL-2"><g transform="translate(0.5,0.5)"><rect x="170" y="20" width="140" height="280" rx="21" ry="21" fill="#ffffff" stroke="#000000" pointer-events="all" style="fill: light-dark(#ffffff, var(--ge-dark-color, #121212)); stroke: light-dark(rgb(0, 0, 0), rgb(255, 255, 255));"/></g></g><g data-cell-id="2TCWhb-XTmcDqcRTRNEL-3"><g transform="translate(0.5,0.5)"><rect x="400" y="115" width="81.71" height="90" fill="none" stroke="none" pointer-events="all"/><path d="M 440.73 115 C 425.58 115 415.48 117.69 409.11 121.17 C 402.74 124.64 400.01 128.87 400.01 132.18 L 400 187.23 C 400 191.97 404.29 196.37 411.38 199.61 C 418.47 202.86 428.53 205 440.73 205 C 453.88 205 464.02 202.77 470.94 199.5 C 477.86 196.23 481.71 191.86 481.71 187.41 L 481.71 187.41 L 481.71 187.41 L 481.71 187.41 L 481.69 132.48 C 481.52 128.29 478.14 124.5 471.69 121.14 C 465.05 117.69 454.91 115 440.73 115 Z M 440.73 116.88 C 454.68 116.88 464.52 119.54 470.82 122.81 C 477.12 126.09 479.74 130.08 479.63 132.69 C 479.52 135.31 478.32 137.37 476.29 139.23 C 474.04 141.3 470.78 143.07 466.95 144.48 C 459.3 147.3 449.38 148.69 440.77 148.69 C 431.79 148.69 421.92 147.23 414.4 144.38 C 410.64 142.96 407.47 141.18 405.3 139.13 C 403.12 137.07 401.9 134.58 401.97 132.15 C 402.04 129.73 404.2 125.99 410.01 122.82 C 416.01 119.55 425.8 116.88 440.73 116.88 Z M 401.89 138.01 C 402.48 138.89 403.19 139.72 404.01 140.5 C 406.45 142.8 409.82 144.66 413.73 146.14 C 421.56 149.11 431.59 150.57 440.77 150.57 C 449.58 150.57 459.64 149.18 467.6 146.25 C 471.58 144.78 475.05 142.94 477.56 140.62 C 478.41 139.85 479.14 139.01 479.75 138.12 L 479.77 149.37 C 479.64 151.87 478.42 154.03 476.29 155.99 C 474.04 158.06 470.78 159.83 466.95 161.24 C 459.3 164.06 449.38 165.44 440.77 165.44 C 431.79 165.44 421.92 163.99 414.4 161.14 C 410.64 159.72 407.47 157.94 405.3 155.88 C 403.12 153.83 401.89 151.27 401.89 149.97 C 401.89 149.87 401.89 138.01 401.89 138.01 Z M 401.89 154.77 C 402.48 155.65 403.19 156.48 404.01 157.25 C 406.45 159.56 409.82 161.42 413.73 162.9 C 421.56 165.87 431.59 167.33 440.77 167.33 C 449.58 167.33 459.64 165.94 467.6 163.01 C 471.58 161.54 475.05 159.69 477.57 157.38 C 478.42 156.59 479.16 155.74 479.77 154.84 L 479.77 168.9 C 479.77 170.23 478.54 172.84 476.29 174.91 C 474.04 176.98 470.78 178.75 466.95 180.16 C 459.3 182.98 449.38 184.36 440.77 184.36 C 431.79 184.36 421.92 182.91 414.4 180.06 C 410.64 178.63 407.47 176.86 405.3 174.8 C 403.12 172.75 401.89 170.18 401.89 168.87 C 401.89 168.78 401.89 154.77 401.89 154.77 Z M 401.89 173.68 C 402.47 174.56 403.19 175.4 404.01 176.17 C 406.45 178.48 409.82 180.33 413.74 181.82 C 421.56 184.79 431.59 186.24 440.77 186.24 C 449.58 186.24 459.64 184.85 467.6 181.92 C 471.59 180.46 475.05 178.61 477.57 176.3 C 478.43 175.5 479.19 174.63 479.81 173.71 L 479.83 187.41 C 479.83 190.73 476.71 194.69 470.13 197.8 C 463.56 200.91 453.67 203.12 440.73 203.12 C 428.76 203.12 418.92 201 412.16 197.9 C 405.4 194.81 401.88 190.79 401.88 187.23 Z" fill="#000000" stroke="none" pointer-events="all" style="fill: light-dark(rgb(0, 0, 0), rgb(237, 237, 237));"/></g></g><g data-cell-id="2TCWhb-XTmcDqcRTRNEL-4"><g transform="translate(0.5,0.5)"><rect x="180" y="40" width="120" height="40" rx="6" ry="6" fill="#ffffff" stroke="#000000" pointer-events="all" style="fill: light-dark(#ffffff, var(--ge-dark-color, #121212)); stroke: light-dark(rgb(0, 0, 0), rgb(255, 255, 255));"/></g><g><g><switch><foreignObject style="overflow: visible; text-align: left;" pointer-events="none" width="100%" height="100%" requiredFeatures="http://www.w3.org/TR/SVG11/feature#Extensibility"><div xmlns="http://www.w3.org/1999/xhtml" style="display: flex; align-items: unsafe center; justify-content: unsafe center; width: 118px; height: 1px; padding-top: 60px; margin-left: 181px;"><div style="box-sizing: border-box; font-size: 0; text-align: center; color: #000000; "><div style="display: inline-block; font-size: 12px; font-family: Helvetica; color: light-dark(#000000, #ffffff); line-height: 1.2; pointer-events: all; white-space: normal; word-wrap: normal; ">Clientes</div></div></div></foreignObject><text x="240" y="64" fill="light-dark(#000000, #ffffff)" font-family="Helvetica" font-size="12px" text-anchor="middle">Clientes</text></switch></g></g></g><g data-cell-id="2TCWhb-XTmcDqcRTRNEL-5"><g transform="translate(0.5,0.5)"><rect x="180" y="90" width="120" height="40" rx="6" ry="6" fill="#ffffff" stroke="#000000" pointer-events="all" style="fill: light-dark(#ffffff, var(--ge-dark-color, #121212)); stroke: light-dark(rgb(0, 0, 0), rgb(255, 255, 255));"/></g><g><g><switch><foreignObject style="overflow: visible; text-align: left;" pointer-events="none" width="100%" height="100%" requiredFeatures="http://www.w3.org/TR/SVG11/feature#Extensibility"><div xmlns="http://www.w3.org/1999/xhtml" style="display: flex; align-items: unsafe center; justify-content: unsafe center; width: 118px; height: 1px; padding-top: 110px; margin-left: 181px;"><div style="box-sizing: border-box; font-size: 0; text-align: center; color: #000000; "><div style="display: inline-block; font-size: 12px; font-family: Helvetica; color: light-dark(#000000, #ffffff); line-height: 1.2; pointer-events: all; white-space: normal; word-wrap: normal; ">Catálogo de Eventos</div></div></div></foreignObject><text x="240" y="114" fill="light-dark(#000000, #ffffff)" font-family="Helvetica" font-size="12px" text-anchor="middle">Catálogo de Eventos</text></switch></g></g></g><g data-cell-id="2TCWhb-XTmcDqcRTRNEL-6"><g transform="translate(0.5,0.5)"><rect x="180" y="190" width="120" height="40" rx="6" ry="6" fill="#ffffff" stroke="#000000" pointer-events="all" style="fill: light-dark(#ffffff, var(--ge-dark-color, #121212)); stroke: light-dark(rgb(0, 0, 0), rgb(255, 255, 255));"/></g><g><g><switch><foreignObject style="overflow: visible; text-align: left;" pointer-events="none" width="100%" height="100%" requiredFeatures="http://www.w3.org/TR/SVG11/feature#Extensibility"><div xmlns="http://www.w3.org/1999/xhtml" style="display: flex; align-items: unsafe center; justify-content: unsafe center; width: 118px; height: 1px; padding-top: 210px; margin-left: 181px;"><div style="box-sizing: border-box; font-size: 0; text-align: center; color: #000000; "><div style="display: inline-block; font-size: 12px; font-family: Helvetica; color: light-dark(#000000, #ffffff); line-height: 1.2; pointer-events: all; white-space: normal; word-wrap: normal; ">Pagamentos</div></div></div></foreignObject><text x="240" y="214" fill="light-dark(#000000, #ffffff)" font-family="Helvetica" font-size="12px" text-anchor="middle">Pagamentos</text></switch></g></g></g><g data-cell-id="2TCWhb-XTmcDqcRTRNEL-7"><g transform="translate(0.5,0.5)"><rect x="180" y="240" width="120" height="40" rx="6" ry="6" fill="#ffffff" stroke="#000000" pointer-events="all" style="fill: light-dark(#ffffff, var(--ge-dark-color, #121212)); stroke: light-dark(rgb(0, 0, 0), rgb(255, 255, 255));"/></g><g><g><switch><foreignObject style="overflow: visible; text-align: left;" pointer-events="none" width="100%" height="100%" requiredFeatures="http://www.w3.org/TR/SVG11/feature#Extensibility"><div xmlns="http://www.w3.org/1999/xhtml" style="display: flex; align-items: unsafe center; justify-content: unsafe center; width: 118px; height: 1px; padding-top: 260px; margin-left: 181px;"><div style="box-sizing: border-box; font-size: 0; text-align: center; color: #000000; "><div style="display: inline-block; font-size: 12px; font-family: Helvetica; color: light-dark(#000000, #ffffff); line-height: 1.2; pointer-events: all; white-space: normal; word-wrap: normal; ">Relatórios</div></div></div></foreignObject><text x="240" y="264" fill="light-dark(#000000, #ffffff)" font-family="Helvetica" font-size="12px" text-anchor="middle">Relatórios</text></switch></g></g></g><g data-cell-id="2TCWhb-XTmcDqcRTRNEL-9"><g transform="translate(0.5,0.5)"><rect x="180" y="140" width="120" height="40" rx="6" ry="6" fill="#ffffff" stroke="#000000" pointer-events="all" style="fill: light-dark(#ffffff, var(--ge-dark-color, #121212)); stroke: light-dark(rgb(0, 0, 0), rgb(255, 255, 255));"/></g><g><g><switch><foreignObject style="overflow: visible; text-align: left;" pointer-events="none" width="100%" height="100%" requiredFeatures="http://www.w3.org/TR/SVG11/feature#Extensibility"><div xmlns="http://www.w3.org/1999/xhtml" style="display: flex; align-items: unsafe center; justify-content: unsafe center; width: 118px; height: 1px; padding-top: 160px; margin-left: 181px;"><div style="box-sizing: border-box; font-size: 0; text-align: center; color: #000000; "><div style="display: inline-block; font-size: 12px; font-family: Helvetica; color: light-dark(#000000, #ffffff); line-height: 1.2; pointer-events: all; white-space: normal; word-wrap: normal; ">Venda/Reserva</div></div></div></foreignObject><text x="240" y="164" fill="light-dark(#000000, #ffffff)" font-family="Helvetica" font-size="12px" text-anchor="middle">Venda/Reserva</text></switch></g></g></g><g data-cell-id="2TCWhb-XTmcDqcRTRNEL-10"><g transform="translate(0.5,0.5)"><rect x="0" y="135" width="50" height="50" fill="none" stroke="none" pointer-events="all"/><path d="M 25 135 C 11.2 135 0 146.2 0 160 C 0 173.8 11.2 185 25 185 C 38.8 185 50 173.8 50 160 C 50 146.2 38.8 135 25 135 Z M 26.77 136.07 C 32.94 136.52 38.45 139.3 42.44 143.53 L 33.83 143.53 C 31.94 140.48 29.56 137.85 26.77 136.07 Z M 23.11 136.08 C 20.32 137.86 17.95 140.49 16.06 143.53 L 7.55 143.53 C 11.52 139.32 16.99 136.56 23.11 136.08 Z M 24.95 136.19 C 27.94 137.74 30.55 140.37 32.62 143.53 L 17.27 143.53 C 19.34 140.37 21.95 137.74 24.95 136.19 Z M 6.65 144.54 L 15.46 144.54 C 14.79 145.72 14.19 146.94 13.67 148.19 C 13.56 148.45 13.68 148.75 13.94 148.86 C 14.2 148.96 14.49 148.84 14.6 148.58 C 15.19 147.19 15.87 145.83 16.64 144.54 L 33.26 144.54 C 34.02 145.83 34.71 147.19 35.29 148.58 C 35.4 148.84 35.7 148.96 35.96 148.86 C 36.21 148.75 36.34 148.45 36.23 148.19 C 35.7 146.94 35.1 145.72 34.44 144.54 L 43.35 144.54 C 46.87 148.72 48.99 154.11 48.99 160 C 48.99 165.89 46.87 171.29 43.35 175.46 L 34.84 175.46 C 35.46 174.37 36.04 173.2 36.54 171.96 C 36.65 171.7 36.52 171.4 36.26 171.3 C 36 171.19 35.71 171.32 35.6 171.58 C 35.04 172.97 34.38 174.27 33.65 175.46 L 16.24 175.46 C 15.52 174.27 14.86 172.97 14.29 171.58 C 14.18 171.32 13.89 171.19 13.63 171.3 C 13.37 171.4 13.24 171.7 13.35 171.96 C 13.86 173.2 14.43 174.37 15.06 175.46 L 6.65 175.46 C 3.13 171.29 1.01 165.89 1.01 160 C 1.01 154.11 3.13 148.72 6.65 144.54 Z M 6.88 155.15 C 6.75 155.15 6.62 155.21 6.52 155.3 C 6.43 155.4 6.37 155.53 6.37 155.66 L 6.37 158.75 C 6.37 160.31 6.64 161.49 7.02 162.72 C 7.03 162.73 7.03 162.74 7.04 162.75 L 8.53 166.53 C 8.61 166.74 8.81 166.87 9.02 166.86 C 9.24 166.85 9.43 166.7 9.49 166.49 L 11.15 160.8 L 12.82 166.49 C 12.88 166.7 13.06 166.85 13.28 166.86 C 13.5 166.87 13.7 166.74 13.78 166.53 L 15.1 163.19 C 15.1 163.19 15.1 163.19 15.1 163.19 C 15.1 163.19 15.1 163.19 15.1 163.19 C 15.66 161.76 15.93 160.33 15.93 158.61 L 15.93 155.66 C 15.93 155.53 15.87 155.4 15.78 155.3 C 15.68 155.21 15.55 155.15 15.42 155.15 C 15.28 155.15 15.15 155.21 15.06 155.3 C 14.96 155.4 14.91 155.53 14.91 155.66 L 14.91 158.61 C 14.91 160.23 14.67 161.5 14.16 162.82 L 13.38 164.79 L 11.64 158.84 C 11.58 158.62 11.38 158.48 11.15 158.48 C 10.93 158.48 10.73 158.62 10.67 158.84 L 8.93 164.78 L 7.99 162.4 C 7.63 161.23 7.39 160.19 7.39 158.75 L 7.39 155.66 C 7.39 155.53 7.34 155.4 7.24 155.3 C 7.15 155.21 7.02 155.15 6.88 155.15 Z M 19.66 155.15 C 19.52 155.15 19.39 155.21 19.3 155.3 C 19.2 155.4 19.15 155.53 19.15 155.66 L 19.15 158.75 C 19.15 160.31 19.42 161.49 19.8 162.72 C 19.8 162.73 19.81 162.74 19.81 162.75 L 21.31 166.53 C 21.38 166.74 21.58 166.87 21.8 166.86 C 22.02 166.85 22.2 166.7 22.27 166.49 L 23.93 160.8 L 25.59 166.49 C 25.65 166.7 25.84 166.85 26.06 166.86 C 26.27 166.87 26.47 166.74 26.55 166.53 L 27.88 163.19 C 27.88 163.19 27.88 163.19 27.88 163.19 C 27.88 163.19 27.88 163.19 27.88 163.19 C 28.44 161.76 28.7 160.33 28.7 158.61 L 28.7 155.66 C 28.7 155.53 28.65 155.4 28.55 155.3 C 28.46 155.21 28.33 155.15 28.19 155.15 C 28.06 155.15 27.93 155.21 27.83 155.3 C 27.74 155.4 27.69 155.53 27.69 155.66 L 27.69 158.61 C 27.69 160.23 27.45 161.5 26.93 162.82 L 26.15 164.79 L 24.42 158.84 C 24.35 158.62 24.16 158.48 23.93 158.48 C 23.7 158.48 23.5 158.62 23.44 158.84 L 21.71 164.78 L 20.77 162.4 C 20.4 161.23 20.17 160.19 20.17 158.75 L 20.17 155.66 C 20.17 155.53 20.11 155.4 20.02 155.3 C 19.92 155.21 19.79 155.15 19.66 155.15 Z M 32.43 155.15 C 32.3 155.15 32.17 155.21 32.07 155.3 C 31.98 155.4 31.93 155.53 31.93 155.66 L 31.93 158.75 C 31.93 160.31 32.19 161.49 32.58 162.72 C 32.58 162.73 32.58 162.74 32.59 162.75 L 34.08 166.53 C 34.16 166.74 34.36 166.87 34.58 166.86 C 34.79 166.85 34.98 166.7 35.04 166.49 L 36.71 160.8 L 38.37 166.49 C 38.43 166.7 38.62 166.85 38.83 166.86 C 39.05 166.87 39.25 166.74 39.33 166.53 L 40.65 163.19 C 40.65 163.19 40.65 163.19 40.65 163.19 C 40.65 163.19 40.65 163.19 40.65 163.19 C 41.22 161.76 41.48 160.33 41.48 158.61 L 41.48 155.66 C 41.48 155.53 41.42 155.4 41.33 155.3 C 41.23 155.21 41.1 155.15 40.97 155.15 C 40.84 155.15 40.71 155.21 40.61 155.3 C 40.52 155.4 40.46 155.53 40.46 155.66 L 40.46 158.61 C 40.46 160.23 40.23 161.5 39.71 162.82 L 38.93 164.79 L 37.19 158.84 C 37.13 158.62 36.93 158.48 36.71 158.48 C 36.48 158.48 36.28 158.62 36.22 158.84 L 34.48 164.78 L 33.54 162.4 C 33.18 161.23 32.94 160.19 32.94 158.75 L 32.94 155.66 C 32.94 155.53 32.89 155.4 32.79 155.3 C 32.7 155.21 32.57 155.15 32.43 155.15 Z M 7.56 176.48 L 15.67 176.48 C 17.75 179.79 20.32 182.31 22.87 183.9 C 16.85 183.37 11.47 180.62 7.56 176.48 Z M 16.88 176.48 L 33.01 176.48 C 30.61 180.07 27.64 182.61 24.95 183.87 C 22.25 182.61 19.28 180.07 16.88 176.48 Z M 34.23 176.48 L 42.44 176.48 C 38.5 180.65 33.07 183.41 27.01 183.91 C 29.56 182.32 32.13 179.8 34.23 176.48 Z" fill="#000000" stroke="none" pointer-events="all" style="fill: light-dark(rgb(0, 0, 0), rgb(237, 237, 237));"/></g></g><g data-cell-id="Zd8xZPbg5f2I5Xs-4WNl-1"><g transform="translate(0.5,0.5)"><path d="M 60 149.66 L 123.63 149.66" fill="none" stroke="#000000" stroke-miterlimit="10" pointer-events="stroke" style="stroke: light-dark(rgb(0, 0, 0), rgb(255, 255, 255));"/><path d="M 128.88 149.66 L 121.88 153.16 L 123.63 149.66 L 121.88 146.16 Z" fill="#000000" stroke="#000000" stroke-miterlimit="10" pointer-events="all" style="fill: light-dark(rgb(0, 0, 0), rgb(255, 255, 255)); stroke: light-dark(rgb(0, 0, 0), rgb(255, 255, 255));"/></g></g><g data-cell-id="Zd8xZPbg5f2I5Xs-4WNl-2"><g transform="translate(0.5,0.5)"><path d="M 130 169.66 L 100 169.66 L 66.37 169.66" fill="none" stroke="#000000" stroke-miterlimit="10" pointer-events="stroke" style="stroke: light-dark(rgb(0, 0, 0), rgb(255, 255, 255));"/><path d="M 61.12 169.66 L 68.12 166.16 L 66.37 169.66 L 68.12 173.16 Z" fill="#000000" stroke="#000000" stroke-miterlimit="10" pointer-events="all" style="fill: light-dark(rgb(0, 0, 0), rgb(255, 255, 255)); stroke: light-dark(rgb(0, 0, 0), rgb(255, 255, 255));"/></g></g><g data-cell-id="Zd8xZPbg5f2I5Xs-4WNl-3"><g transform="translate(0.5,0.5)"><path d="M 320 149.66 L 383.63 149.66" fill="none" stroke="#000000" stroke-miterlimit="10" pointer-events="stroke" style="stroke: light-dark(rgb(0, 0, 0), rgb(255, 255, 255));"/><path d="M 388.88 149.66 L 381.88 153.16 L 383.63 149.66 L 381.88 146.16 Z" fill="#000000" stroke="#000000" stroke-miterlimit="10" pointer-events="all" style="fill: light-dark(rgb(0, 0, 0), rgb(255, 255, 255)); stroke: light-dark(rgb(0, 0, 0), rgb(255, 255, 255));"/></g></g><g data-cell-id="Zd8xZPbg5f2I5Xs-4WNl-4"><g transform="translate(0.5,0.5)"><path d="M 390 169.66 L 360 169.66 L 326.37 169.66" fill="none" stroke="#000000" stroke-miterlimit="10" pointer-events="stroke" style="stroke: light-dark(rgb(0, 0, 0), rgb(255, 255, 255));"/><path d="M 321.12 169.66 L 328.12 166.16 L 326.37 169.66 L 328.12 173.16 Z" fill="#000000" stroke="#000000" stroke-miterlimit="10" pointer-events="all" style="fill: light-dark(rgb(0, 0, 0), rgb(255, 255, 255)); stroke: light-dark(rgb(0, 0, 0), rgb(255, 255, 255));"/></g></g></g></g></g><switch><g requiredFeatures="http://www.w3.org/TR/SVG11/feature#Extensibility"/><a transform="translate(0,-5)" xlink:href="https://www.drawio.com/doc/faq/svg-export-text-problems" target="_blank"><text text-anchor="middle" font-size="10px" x="50%" y="100%">Text is not SVG - cannot display</text></a></switch></svg>